<svg version="1.0" xmlns="http://www.w3.org/2000/svg" xmlns:xlink="http://www.w3.org/1999/xlink" width="100%"
    height="100%" viewBox="0 0 340.000000 250.000000" preserveAspectRatio="xMidYMid meet"
    color-interpolation-filters="sRGB" style="margin: auto;">
    <style>
        .a {
            fill: #333;
        }

        @media (prefers-color-scheme: dark) {
            .a {
                fill: #eee;
            }
        }
    </style>
    <g class="a icon-text-wrapper icon-svg-group iconsvg" transform="translate(6,7.570281982421875)">
        <g class="iconsvg-imagesvg" transform="matrix(1,0,0,1,0,0)" opacity="1">
            <g>
                <rect fill="#fff" fill-opacity="0" stroke-width="2" x="0" y="0" width="328.00000000000017"
                    height="234.85944235203152" class="image-rect"></rect>
                <svg filter="#fff" x="0" y="0" width="328.00000000000017" height="234.85944235203152"
                    class="image-svg-svg primary" style="overflow: visible;">
                    <svg xmlns="http://www.w3.org/2000/svg" xmlns:xlink="http://www.w3.org/1999/xlink"
                        viewBox="0.0039997100830078125 0.002899169921875 103.12333679199219 73.8397445678711">
                        <path transform="translate(7.344000000000001 50.35733308410645)"
                            d="M10.37-10.08L10.37-10.08Q8.35-8.78 7.27-7.52Q6.19-6.26 5.80-5.15Q5.40-4.03 5.51-3.35Q5.62-2.66 6.05-2.59L6.05-2.59Q7.06-3.74 8.24-5.76Q9.43-7.78 10.37-10.08ZM23.62-17.21L23.62-17.21Q23.90-17.28 24.05-17.32Q24.19-17.35 24.26-17.32Q24.34-17.28 24.41-17.28L24.41-17.28Q24.48-17.21 24.55-17.21L24.55-17.21Q24.77-16.99 24.66-16.70Q24.55-16.42 24.41-16.27L24.41-16.27Q23.40-15.62 21.53-14.72Q19.66-13.82 16.78-12.60L16.78-12.60Q15.98-10.30 14.80-8.14Q13.61-5.98 12.49-4.39Q11.38-2.81 10.80-2.16L10.80-2.16Q10.80-2.16 10.44-1.84Q10.08-1.51 9.47-1.15Q8.86-0.79 8.06-0.61Q7.27-0.43 6.41-0.65L6.41-0.65Q6.26-0.72 6.12-0.79L6.12-0.79Q5.76-0.94 5.29-1.22Q4.82-1.51 4.50-2.09Q4.18-2.66 4.25-3.67L4.25-3.67Q4.39-5.47 5.36-7.02Q6.34-8.57 7.88-9.86Q9.43-11.16 11.16-12.17L11.16-12.17Q12.17-14.33 12.82-16.49Q13.46-18.65 13.75-20.23L13.75-20.23Q13.90-21.17 13.86-21.64Q13.82-22.10 13.68-22.28Q13.54-22.46 13.39-22.46L13.39-22.46L13.32-22.54Q11.38-22.82 9.47-20.12Q7.56-17.42 5.83-12.71Q4.10-7.99 2.66-2.16Q1.22 3.67 0.25 9.61Q-0.72 15.55-1.15 20.66L-1.15 20.66Q-1.22 22.10-1.73 22.64Q-2.23 23.18-3.24 23.47L-3.24 23.47Q-3.60 23.54-4.43 23.29Q-5.26 23.04-6.12 22.61Q-6.98 22.18-7.34 21.74L-7.34 21.74L-0.22-20.74Q-0.07-21.53 0.32-22.07Q0.72-22.61 1.22-22.75L1.22-22.75Q1.66-22.97 2.30-22.75Q2.95-22.54 3.64-22.10Q4.32-21.67 4.75-21.28Q5.18-20.88 5.18-20.81L5.18-20.81L3.17-9.86Q3.53-11.23 4.18-13.14Q4.82-15.05 5.76-17.03Q6.70-19.01 7.88-20.66Q9.07-22.32 10.58-23.22Q12.10-24.12 13.90-23.76L13.90-23.76Q15.91-23.33 16.85-22.36Q17.78-21.38 17.96-20.05Q18.14-18.72 17.89-17.21Q17.64-15.70 17.28-14.26L17.28-14.26Q19.08-14.98 20.38-15.62Q21.67-16.27 22.46-16.63L22.46-16.63Q23.26-17.06 23.62-17.21ZM38.38-45.72L38.38-45.72Q38.45-46.58 38.23-47.41Q38.02-48.24 37.58-48.46L37.58-48.46Q37.01-48.67 36.18-47.56Q35.35-46.44 34.45-43.63Q33.55-40.82 32.62-36.07L32.62-36.07Q34.99-38.30 36.18-40.00Q37.37-41.69 37.84-43.09Q38.30-44.50 38.38-45.72ZM38.95-16.63L38.95-16.63Q39.24-17.28 39.82-17.21L39.82-17.21Q40.25-17.06 40.32-16.70Q40.39-16.34 40.25-15.98L40.25-15.98Q38.74-11.88 37.30-9.22Q35.86-6.55 34.52-4.90Q33.19-3.24 32.04-2.16L32.04-2.16Q31.25-1.44 30.24-0.83Q29.23-0.22 28.01-0.04Q26.78 0.14 25.49-0.29L25.49-0.29Q23.83-1.08 23.29-3.56Q22.75-6.05 22.97-9.65Q23.18-13.25 23.87-17.39Q24.55-21.53 25.34-25.70L25.34-25.70L27.14-35.21Q27.79-38.95 28.66-41.58Q29.52-44.21 30.46-45.86Q31.39-47.52 32.26-48.46Q33.12-49.39 33.84-49.82L33.84-49.82Q35.35-50.54 36.72-50.29Q38.09-50.04 38.95-48.85Q39.82-47.66 39.67-45.65L39.67-45.65Q39.53-43.06 37.73-40.21Q35.93-37.37 32.26-34.27L32.26-34.27L30.60-25.78Q30.53-25.42 30.46-25.06L30.46-25.06Q29.45-19.73 28.76-15.30Q28.08-10.87 28.04-7.81Q28.01-4.75 29.02-3.53L29.02-3.53Q29.81-2.74 31.07-3.56Q32.33-4.39 33.77-6.37Q35.21-8.35 36.58-11.05Q37.94-13.75 38.95-16.63ZM64.87-17.06L64.87-17.06Q65.02-17.57 65.27-17.68Q65.52-17.78 65.81-17.71L65.81-17.71Q66.17-17.64 66.28-17.35Q66.38-17.06 66.24-16.70L66.24-16.70Q64.73-11.66 62.68-7.99Q60.62-4.32 58.32-2.05Q56.02 0.22 53.78 0.94Q51.55 1.66 49.61 0.65L49.61 0.65Q49.32 0.50 49.14 0.36Q48.96 0.22 48.96 0.22L48.96 0.22Q48.53-0.50 48.64-1.98Q48.74-3.46 49.21-5.29Q49.68-7.13 50.18-8.93L50.18-8.93Q50.76-11.02 51.12-12.53L51.12-12.53Q50.33-11.45 49.32-9.79L49.32-9.79Q48.31-8.21 47.16-6.52Q46.01-4.82 44.78-3.35Q43.56-1.87 42.34-1.04Q41.11-0.22 39.96-0.36L39.96-0.36Q39.96-0.36 39.71-0.43Q39.46-0.50 39.06-0.65Q38.66-0.79 38.30-1.04Q37.94-1.30 37.73-1.66L37.73-1.66Q36.94-3.10 37.08-5.76Q37.22-8.42 37.84-11.41Q38.45-14.40 39.13-16.92Q39.82-19.44 40.18-20.66L40.18-20.66Q40.39-21.24 40.39-21.31L40.39-21.31Q40.61-21.46 41.44-21.74Q42.26-22.03 43.27-22.18Q44.28-22.32 44.86-21.96L44.86-21.96Q45.14-21.67 45.18-21.31Q45.22-20.95 45.07-20.45L45.07-20.45Q43.06-12.60 42.16-8.32Q41.26-4.03 41.83-3.42Q42.41-2.81 44.82-5.87Q47.23-8.93 51.91-15.84L51.91-15.84Q53.06-15.91 53.93-15.77Q54.79-15.62 55.33-15.41Q55.87-15.19 56.20-14.98Q56.52-14.76 56.63-14.58Q56.74-14.40 56.74-14.40L56.74-14.40Q56.45-12.96 55.98-11.34Q55.51-9.72 55.08-7.99L55.08-7.99Q54.43-5.98 54.00-4.28Q53.57-2.59 53.42-1.51Q53.28-0.43 53.71-0.43L53.71-0.43Q55.44-1.15 57.46-3.13Q59.47-5.11 61.38-8.53Q63.29-11.95 64.87-17.06ZM94.61-16.20L94.61-16.20Q94.75-16.56 94.93-16.63Q95.11-16.70 95.33-16.63L95.33-16.63Q95.54-16.56 95.69-16.38Q95.83-16.20 95.76-15.84L95.76-15.84Q94.61-11.30 92.66-7.67Q90.72-4.03 88.63-1.51Q86.54 1.01 84.85 2.30Q83.16 3.60 82.51 3.46L82.51 3.46Q81.94 3.60 81.14 3.46Q80.35 3.31 79.56 2.95L79.56 2.95Q78.91 2.66 79.02 1.22Q79.13-0.22 79.63-2.34Q80.14-4.46 80.78-6.70L80.78-6.70Q81.36-8.71 81.79-10.44Q82.22-12.17 82.30-13.25L82.30-13.25Q81.72-12.82 81.04-11.84Q80.35-10.87 79.56-9.65L79.56-9.65Q78.70-8.14 77.83-6.95Q76.97-5.76 76.25-5.47L76.25-5.47Q76.03-5.40 75.38-5.40Q74.74-5.40 73.98-5.51Q73.22-5.62 72.79-5.98L72.79-5.98Q72.00-6.77 71.93-8.10Q71.86-9.43 72.18-11.02Q72.50-12.60 72.86-14.04L72.86-14.04Q73.22-15.19 73.37-16.13L73.37-16.13Q73.44-16.56 73.51-16.99L73.51-16.99Q73.73-18.07 73.76-18.83Q73.80-19.58 73.44-20.09L73.44-20.09Q72.58-19.22 71.82-17.75Q71.06-16.27 70.38-14.47Q69.70-12.67 69.05-10.87L69.05-10.87Q68.33-8.71 67.61-6.91Q66.89-5.11 66.13-4.03Q65.38-2.95 64.51-3.02L64.51-3.02Q63.72-3.10 63.00-3.42Q62.28-3.74 61.78-4.25Q61.27-4.75 61.27-5.47L61.27-5.47Q61.27-8.06 61.92-11.77Q62.57-15.48 63.32-18.50Q64.08-21.53 64.44-22.25L64.44-22.25Q64.80-22.39 65.56-22.57Q66.31-22.75 67.14-22.75Q67.97-22.75 68.51-22.43Q69.05-22.10 68.98-21.31L68.98-21.31Q68.40-18.94 67.79-16.13Q67.18-13.32 66.78-10.94Q66.38-8.57 66.46-7.42L66.46-7.42Q66.96-8.64 67.68-10.73L67.68-10.73Q68.40-12.89 69.34-15.26Q70.27-17.64 71.35-19.40Q72.43-21.17 73.66-21.67L73.66-21.67Q74.16-21.74 74.77-21.60Q75.38-21.46 76.03-21.24L76.03-21.24Q76.03-21.17 76.10-21.17L76.10-21.17Q77.54-20.30 78.08-19.40Q78.62-18.50 78.62-17.53Q78.62-16.56 78.41-15.48L78.41-15.48Q78.41-15.19 78.34-14.90L78.34-14.90Q78.05-13.25 77.62-11.66L77.62-11.66Q77.26-10.37 77.08-9.50Q76.90-8.64 77.11-8.57L77.11-8.57Q77.18-8.35 77.36-8.50Q77.54-8.64 77.98-9.22L77.98-9.22Q78.12-9.43 78.34-9.72L78.34-9.72Q79.06-10.80 79.81-11.88Q80.57-12.96 81.47-13.79Q82.37-14.62 83.34-14.98Q84.31-15.34 85.46-14.98L85.46-14.98Q85.46-14.98 85.57-14.94Q85.68-14.90 85.86-14.83Q86.04-14.76 86.26-14.54Q86.47-14.33 86.62-14.04L86.62-14.04Q86.83-13.25 86.15-9.97Q85.46-6.70 84.56-3.35Q83.66 0 83.30 1.01L83.30 1.01L83.45 1.08Q83.81 1.15 85.07 0.11Q86.33-0.94 88.09-3.10Q89.86-5.26 91.62-8.53Q93.38-11.81 94.61-16.20Z">
                        </path>
                    </svg>
                </svg>
                <defs>
                    <filter id="colors9060996241">
                        <feColorMatrix type="matrix"
                            values="0 0 0 0 0.19921875  0 0 0 0 0.19921875  0 0 0 0 0.19921875  0 0 0 1 0"
                            class="icon-fecolormatrix"></feColorMatrix>
                    </filter>
                    <filter id="colorsf8004746189">
                        <feColorMatrix type="matrix"
                            values="0 0 0 0 0.99609375  0 0 0 0 0.99609375  0 0 0 0 0.99609375  0 0 0 1 0"
                            class="icon-fecolormatrix"></feColorMatrix>
                    </filter>
                    <filter id="colorsb3225753873">
                        <feColorMatrix type="matrix" values="0 0 0 0 0  0 0 0 0 0  0 0 0 0 0  0 0 0 1 0"
                            class="icon-fecolormatrix"></feColorMatrix>
                    </filter>
                </defs>
            </g>
        </g>
    </g>
</svg>